<svg xmlns="http://www.w3.org/2000/svg" xmlns:xlink="http://www.w3.org/1999/xlink" contentStyleType="text/css" height="236px" preserveAspectRatio="none" style="width:273px;height:236px;background:#FFFFFF;" version="1.1" viewBox="0 0 273 236" width="273px" zoomAndPan="magnify"><defs/><g><!--cluster LSP-Client--><g id="cluster_LSP-Client"><rect fill="none" height="223" rx="2.5" ry="2.5" style="stroke:#181818;stroke-width:1;" width="187.3" x="80.37" y="7"/><text fill="#000000" font-family="sans-serif" font-size="14" font-weight="bold" lengthAdjust="spacing" textLength="75.8174" x="136.1113" y="22.5352">LSP-Client</text></g><g id="elem_UC1"><ellipse cx="174.0217" cy="196.0003" fill="#F1F1F1" rx="77.6517" ry="17.9303" style="stroke:#181818;stroke-width:0.5;"/><text fill="#000000" font-family="sans-serif" font-size="14" lengthAdjust="spacing" textLength="112.4785" x="117.7824" y="199.2913">go-to-definition</text></g><g id="elem_UC2"><ellipse cx="174.0217" cy="125.0003" fill="#F1F1F1" rx="77.6517" ry="17.9303" style="stroke:#181818;stroke-width:0.5;"/><text fill="#000000" font-family="sans-serif" font-size="14" lengthAdjust="spacing" textLength="112.4785" x="117.7824" y="128.2913">go-to-definition</text></g><g id="elem_UC3"><ellipse cx="174.0221" cy="56.999" fill="#F1F1F1" rx="37.7421" ry="14.659" style="stroke:#181818;stroke-width:0.5;"/><text fill="#000000" font-family="sans-serif" font-size="14" lengthAdjust="spacing" textLength="37.1328" x="155.4557" y="60.29">Drink</text></g><!--entity u--><g id="elem_u"><ellipse cx="21.1826" cy="95.26" fill="#F1F1F1" rx="8" ry="8" style="stroke:#181818;stroke-width:0.5;"/><path d="M21.1826,103.26 L21.1826,130.26 M8.1826,111.26 L34.1826,111.26 M21.1826,130.26 L8.1826,145.26 M21.1826,130.26 L34.1826,145.26 " fill="none" style="stroke:#181818;stroke-width:0.5;"/><text fill="#000000" font-family="sans-serif" font-size="14" lengthAdjust="spacing" textLength="30.3652" x="6" y="160.2952">User</text></g><!--link u to UC1--><g id="link_u_UC1"><path d="M36.46,136.5 C46.17,143.91 59.53,153.38 72.37,160 C88.94,168.55 102.3303,174.0057 119.3903,179.8157 " fill="none" id="u-to-UC1" style="stroke:#181818;stroke-width:1;"/><polygon fill="#181818" points="125.07,181.75,117.84,175.0621,120.3369,180.1381,115.261,182.635,125.07,181.75" style="stroke:#181818;stroke-width:1;"/></g><!--link u to UC2--><g id="link_u_UC2"><path d="M36.65,125 C50.73,125 67.28,125 90.03,125 " fill="none" id="u-to-UC2" style="stroke:#181818;stroke-width:1;"/><polygon fill="#181818" points="96.03,125,87.03,121,91.03,125,87.03,129,96.03,125" style="stroke:#181818;stroke-width:1;"/></g><!--link u to UC3--><g id="link_u_UC3"><path d="M36.83,113.06 C46.48,105.65 59.63,96.36 72.37,90 C94.58,78.91 115.5665,71.9372 135.9165,66.3172 " fill="none" id="u-to-UC3" style="stroke:#181818;stroke-width:1;"/><polygon fill="#181818" points="141.7,64.72,131.9599,63.2602,136.8804,66.051,134.0896,70.9715,141.7,64.72" style="stroke:#181818;stroke-width:1;"/></g><!--SRC=[ZOmn2W8n44NxESKdVGftUvkrj11a3n2oit4mP22PLEBTPHSLIxi7x_sVUJMOeagw6HQf74sqK8Yc5MvkN1r2GwVDX98outoz-2aB5yE3WDuuXiPmIRsfNtYL8jl9Ffodmn_DyDkSgfJxMupqf0xlZ_lHXuOlZVG2]--></g></svg>