<svg xmlns="http://www.w3.org/2000/svg" xmlns:xlink="http://www.w3.org/1999/xlink" contentStyleType="text/css" height="231px" preserveAspectRatio="none" style="width:273px;height:231px;background:#FFFFFF;" version="1.1" viewBox="0 0 273 231" width="273px" zoomAndPan="magnify"><defs/><g><!--cluster IDE--><g id="cluster_IDE"><rect fill="none" height="218" rx="2.5" ry="2.5" style="stroke:#181818;stroke-width:1;" width="187.3" x="80.37" y="7"/><text fill="#000000" font-family="sans-serif" font-size="14" font-weight="bold" lengthAdjust="spacing" textLength="24.1514" x="161.9443" y="22.5352">IDE</text></g><g id="elem_UC1"><ellipse cx="174.0217" cy="191.0003" fill="#F1F1F1" rx="77.6517" ry="17.9303" style="stroke:#181818;stroke-width:0.5;"/><text fill="#000000" font-family="sans-serif" font-size="14" lengthAdjust="spacing" textLength="112.4785" x="117.7824" y="194.2913">go-to-definition</text></g><g id="elem_UC2"><ellipse cx="174.0216" cy="122.0023" fill="#F1F1F1" rx="66.7616" ry="15.7523" style="stroke:#181818;stroke-width:0.5;"/><text fill="#000000" font-family="sans-serif" font-size="14" lengthAdjust="spacing" textLength="84.6357" x="128.7038" y="126.0199">Pay for Food</text></g><g id="elem_UC3"><ellipse cx="174.0221" cy="56.999" fill="#F1F1F1" rx="37.7421" ry="14.659" style="stroke:#181818;stroke-width:0.5;"/><text fill="#000000" font-family="sans-serif" font-size="14" lengthAdjust="spacing" textLength="37.1328" x="155.4557" y="60.29">Drink</text></g><!--entity u--><g id="elem_u"><ellipse cx="21.1826" cy="92.26" fill="#F1F1F1" rx="8" ry="8" style="stroke:#181818;stroke-width:0.5;"/><path d="M21.1826,100.26 L21.1826,127.26 M8.1826,108.26 L34.1826,108.26 M21.1826,127.26 L8.1826,142.26 M21.1826,127.26 L34.1826,142.26 " fill="none" style="stroke:#181818;stroke-width:0.5;"/><text fill="#000000" font-family="sans-serif" font-size="14" lengthAdjust="spacing" textLength="30.3652" x="6" y="157.2952">User</text></g><!--link u to UC1--><g id="link_u_UC1"><path d="M36.56,132.78 C46.3,139.75 59.67,148.67 72.37,155 C89.14,163.36 102.6637,168.7859 119.7737,174.6459 " fill="none" id="u-to-UC1" style="stroke:#181818;stroke-width:1;"/><polygon fill="#181818" points="125.45,176.59,118.2316,169.8897,120.7197,174.9699,115.6395,177.4581,125.45,176.59" style="stroke:#181818;stroke-width:1;"/></g><!--link u to UC2--><g id="link_u_UC2"><path d="M36.65,122 C53.01,122 74.83,122 101.08,122 " fill="none" id="u-to-UC2" style="stroke:#181818;stroke-width:1;"/><polygon fill="#181818" points="107.08,122,98.08,118,102.08,122,98.08,126,107.08,122" style="stroke:#181818;stroke-width:1;"/></g><!--link u to UC3--><g id="link_u_UC3"><path d="M36.49,111.07 C46.2,104.03 59.56,95.1 72.37,89 C94.55,78.43 115.2889,71.7293 135.5489,66.2393 " fill="none" id="u-to-UC3" style="stroke:#181818;stroke-width:1;"/><polygon fill="#181818" points="141.34,64.67,131.6071,63.1631,136.514,65.9777,133.6995,70.8847,141.34,64.67" style="stroke:#181818;stroke-width:1;"/></g><!--SRC=[JOon2i8m54NtVCMbUmRRtSKgkBdq0qBo4X-MF4XU1X7_NLkgTBjmxZapHOKA2gUx8d0XhopPEAzIq4sLIWTNqSn2N4upuJgUyJ90g-HT9NH9h8eD53dpOg_6T3hiFpVtHFmcBo9Xu_sUZuNpOmE3UPi6QuzhvBVw_nhC1m00]--></g></svg>