<svg xmlns="http://www.w3.org/2000/svg" xmlns:xlink="http://www.w3.org/1999/xlink" contentStyleType="text/css" height="224px" preserveAspectRatio="none" style="width:295px;height:224px;background:#FFFFFF;" version="1.1" viewBox="0 0 295 224" width="295px" zoomAndPan="magnify"><defs/><g><!--cluster Restaurant--><g id="cluster_Restaurant"><rect fill="none" height="211" rx="2.5" ry="2.5" style="stroke:#181818;stroke-width:1;" width="165.53" x="123.86" y="7"/><text fill="#000000" font-family="sans-serif" font-size="14" font-weight="bold" lengthAdjust="spacing" textLength="78.3398" x="167.4551" y="22.5352">Restaurant</text></g><g id="elem_UC1"><ellipse cx="206.6242" cy="187.0002" fill="#F1F1F1" rx="53.1142" ry="14.7202" style="stroke:#181818;stroke-width:0.5;"/><text fill="#000000" font-family="sans-serif" font-size="14" lengthAdjust="spacing" textLength="58.502" x="174.3733" y="191.0178">Eat Food</text></g><g id="elem_UC2"><ellipse cx="206.6216" cy="122.0023" fill="#F1F1F1" rx="66.7616" ry="15.7523" style="stroke:#181818;stroke-width:0.5;"/><text fill="#000000" font-family="sans-serif" font-size="14" lengthAdjust="spacing" textLength="84.6357" x="161.3038" y="126.0199">Pay for Food</text></g><g id="elem_UC3"><ellipse cx="206.6221" cy="56.999" fill="#F1F1F1" rx="37.7421" ry="14.659" style="stroke:#181818;stroke-width:0.5;"/><text fill="#000000" font-family="sans-serif" font-size="14" lengthAdjust="spacing" textLength="37.1328" x="188.0557" y="60.29">Drink</text></g><!--entity fc--><g id="elem_fc"><ellipse cx="42.9312" cy="92.26" fill="#F1F1F1" rx="8" ry="8" style="stroke:#181818;stroke-width:0.5;"/><path d="M42.9312,100.26 L42.9312,127.26 M29.9312,108.26 L55.9312,108.26 M42.9312,127.26 L29.9312,142.26 M42.9312,127.26 L55.9312,142.26 " fill="none" style="stroke:#181818;stroke-width:0.5;"/><text fill="#000000" font-family="sans-serif" font-size="14" lengthAdjust="spacing" textLength="73.8623" x="6" y="157.2952">Food Critic</text></g><!--link fc to UC1--><g id="link_fc_UC1"><path d="M80.25,139.41 C91.57,144.64 104.15,150.24 115.86,155 C134.1,162.42 149.1087,167.8914 166.0187,173.7314 " fill="none" id="fc-to-UC1" style="stroke:#181818;stroke-width:1;"/><polygon fill="#181818" points="171.69,175.69,164.4888,168.9712,166.9639,174.0578,161.8773,176.5329,171.69,175.69" style="stroke:#181818;stroke-width:1;"/></g><!--link fc to UC2--><g id="link_fc_UC2"><path d="M80.22,122 C97.72,122 113.28,122 133.55,122 " fill="none" id="fc-to-UC2" style="stroke:#181818;stroke-width:1;"/><polygon fill="#181818" points="139.55,122,130.55,118,134.55,122,130.55,126,139.55,122" style="stroke:#181818;stroke-width:1;"/></g><!--link fc to UC3--><g id="link_fc_UC3"><path d="M80.25,104.59 C91.57,99.36 104.15,93.76 115.86,89 C136.09,80.77 153.6415,74.4576 171.4015,68.3976 " fill="none" id="fc-to-UC3" style="stroke:#181818;stroke-width:1;"/><polygon fill="#181818" points="177.08,66.46,167.2705,65.5807,172.3479,68.0747,169.8539,73.1521,177.08,66.46" style="stroke:#181818;stroke-width:1;"/></g><!--SRC=[JOmn2i9044NxFSKdVGgJtYPgBO8762QpSJ3imkoa4F7kcY2wtOVttvibEZp3TBevHZLXrvm2iMT3Syfvn63goWse879O7vIcMN2HuhGO9SSp04iHfY9eZkHOnSsu3hkQdUc1-2bNlAlvmJJTlw0Fhn0PRRlVAh_P_MV_1W00]--></g></svg>