<svg xmlns="http://www.w3.org/2000/svg" xmlns:xlink="http://www.w3.org/1999/xlink" contentStyleType="text/css" height="242px" preserveAspectRatio="none" style="width:273px;height:242px;background:#FFFFFF;" version="1.1" viewBox="0 0 273 242" width="273px" zoomAndPan="magnify"><defs/><g><!--cluster LSP-Client--><g id="cluster_LSP-Client"><rect fill="none" height="229" rx="2.5" ry="2.5" style="stroke:#181818;stroke-width:1;" width="187.3" x="80.37" y="7"/><text fill="#000000" font-family="sans-serif" font-size="14" font-weight="bold" lengthAdjust="spacing" textLength="75.8174" x="136.1113" y="22.5352">LSP-Client</text></g><g id="elem_UC1"><ellipse cx="174.0217" cy="202.0003" fill="#F1F1F1" rx="77.6517" ry="17.9303" style="stroke:#181818;stroke-width:0.5;"/><text fill="#000000" font-family="sans-serif" font-size="14" lengthAdjust="spacing" textLength="112.4785" x="117.7824" y="205.2913">go-to-definition</text></g><g id="elem_UC2"><ellipse cx="174.0217" cy="131.0003" fill="#F1F1F1" rx="77.6517" ry="17.9303" style="stroke:#181818;stroke-width:0.5;"/><text fill="#000000" font-family="sans-serif" font-size="14" lengthAdjust="spacing" textLength="112.4785" x="117.7824" y="134.2913">go-to-definition</text></g><g id="elem_UC3"><ellipse cx="174.0217" cy="60.0003" fill="#F1F1F1" rx="77.6517" ry="17.9303" style="stroke:#181818;stroke-width:0.5;"/><text fill="#000000" font-family="sans-serif" font-size="14" lengthAdjust="spacing" textLength="112.4785" x="117.7824" y="63.2913">go-to-definition</text></g><!--entity u--><g id="elem_u"><ellipse cx="21.1826" cy="101.26" fill="#F1F1F1" rx="8" ry="8" style="stroke:#181818;stroke-width:0.5;"/><path d="M21.1826,109.26 L21.1826,136.26 M8.1826,117.26 L34.1826,117.26 M21.1826,136.26 L8.1826,151.26 M21.1826,136.26 L34.1826,151.26 " fill="none" style="stroke:#181818;stroke-width:0.5;"/><text fill="#000000" font-family="sans-serif" font-size="14" lengthAdjust="spacing" textLength="30.3652" x="6" y="166.2952">User</text></g><!--link u to UC1--><g id="link_u_UC1"><path d="M36.46,142.5 C46.17,149.91 59.53,159.38 72.37,166 C88.94,174.55 102.3303,180.0057 119.3903,185.8157 " fill="none" id="u-to-UC1" style="stroke:#181818;stroke-width:1;"/><polygon fill="#181818" points="125.07,187.75,117.84,181.0621,120.3369,186.1381,115.261,188.635,125.07,187.75" style="stroke:#181818;stroke-width:1;"/></g><!--link u to UC2--><g id="link_u_UC2"><path d="M36.65,131 C50.73,131 67.28,131 90.03,131 " fill="none" id="u-to-UC2" style="stroke:#181818;stroke-width:1;"/><polygon fill="#181818" points="96.03,131,87.03,127,91.03,131,87.03,135,96.03,131" style="stroke:#181818;stroke-width:1;"/></g><!--link u to UC3--><g id="link_u_UC3"><path d="M36.46,119.5 C46.17,112.09 59.53,102.62 72.37,96 C88.94,87.45 102.3303,81.9943 119.3903,76.1843 " fill="none" id="u-to-UC3" style="stroke:#181818;stroke-width:1;"/><polygon fill="#181818" points="125.07,74.25,115.261,73.365,120.3369,75.8619,117.84,80.9379,125.07,74.25" style="stroke:#181818;stroke-width:1;"/></g><!--SRC=[ZOmn2iCm40JxUyMY_ehOVHgtBWB13n3oMJuG4aYdAkJlmGQdTZUmivDaCrX1rRWRLgqIJ4ic7wnKkAL9TV0DdOx5vvW4y_l5KrB9XWy1lKdmJU1YOIkyogPPZyXvNAR73MUuuOpqfGxcvzcyQFZJI3y0]--></g></svg>