<svg xmlns="http://www.w3.org/2000/svg" xmlns:xlink="http://www.w3.org/1999/xlink" contentStyleType="text/css" height="224px" preserveAspectRatio="none" style="width:251px;height:224px;background:#FFFFFF;" version="1.1" viewBox="0 0 251 224" width="251px" zoomAndPan="magnify"><defs/><g><!--cluster IDE--><g id="cluster_IDE"><rect fill="none" height="211" rx="2.5" ry="2.5" style="stroke:#181818;stroke-width:1;" width="165.52" x="80.37" y="7"/><text fill="#000000" font-family="sans-serif" font-size="14" font-weight="bold" lengthAdjust="spacing" textLength="24.1514" x="151.0543" y="22.5352">IDE</text></g><g id="elem_UC1"><ellipse cx="163.1342" cy="187.0002" fill="#F1F1F1" rx="53.1142" ry="14.7202" style="stroke:#181818;stroke-width:0.5;"/><text fill="#000000" font-family="sans-serif" font-size="14" lengthAdjust="spacing" textLength="58.502" x="130.8833" y="191.0178">Eat Food</text></g><g id="elem_UC2"><ellipse cx="163.1316" cy="122.0023" fill="#F1F1F1" rx="66.7616" ry="15.7523" style="stroke:#181818;stroke-width:0.5;"/><text fill="#000000" font-family="sans-serif" font-size="14" lengthAdjust="spacing" textLength="84.6357" x="117.8138" y="126.0199">Pay for Food</text></g><g id="elem_UC3"><ellipse cx="163.1321" cy="56.999" fill="#F1F1F1" rx="37.7421" ry="14.659" style="stroke:#181818;stroke-width:0.5;"/><text fill="#000000" font-family="sans-serif" font-size="14" lengthAdjust="spacing" textLength="37.1328" x="144.5657" y="60.29">Drink</text></g><!--entity u--><g id="elem_u"><ellipse cx="21.1826" cy="92.26" fill="#F1F1F1" rx="8" ry="8" style="stroke:#181818;stroke-width:0.5;"/><path d="M21.1826,100.26 L21.1826,127.26 M8.1826,108.26 L34.1826,108.26 M21.1826,127.26 L8.1826,142.26 M21.1826,127.26 L34.1826,142.26 " fill="none" style="stroke:#181818;stroke-width:0.5;"/><text fill="#000000" font-family="sans-serif" font-size="14" lengthAdjust="spacing" textLength="30.3652" x="6" y="157.2952">User</text></g><!--link u to UC1--><g id="link_u_UC1"><path d="M36.56,132.79 C46.3,139.76 59.67,148.68 72.37,155 C89.4,163.48 103.5404,168.9252 120.2304,174.4152 " fill="none" id="u-to-UC1" style="stroke:#181818;stroke-width:1;"/><polygon fill="#181818" points="125.93,176.29,118.6305,169.6781,121.1804,174.7277,116.1308,177.2775,125.93,176.29" style="stroke:#181818;stroke-width:1;"/></g><!--link u to UC2--><g id="link_u_UC2"><path d="M36.63,122 C50.88,122 67.69,122 89.99,122 " fill="none" id="u-to-UC2" style="stroke:#181818;stroke-width:1;"/><polygon fill="#181818" points="95.99,122,86.99,118,90.99,122,86.99,126,95.99,122" style="stroke:#181818;stroke-width:1;"/></g><!--link u to UC3--><g id="link_u_UC3"><path d="M36.56,111.21 C46.3,104.24 59.67,95.32 72.37,89 C91.62,79.41 108.7403,73.1225 126.5703,67.4725 " fill="none" id="u-to-UC3" style="stroke:#181818;stroke-width:1;"/><polygon fill="#181818" points="132.29,65.66,122.5021,64.5656,127.5236,67.1704,124.9188,72.1918,132.29,65.66" style="stroke:#181818;stroke-width:1;"/></g><!--SRC=[JSon2i9048JXVfzYk3w5IMzZ8jZPv06MooOUXbkusok2-EvgKBbku1l-LMQ3AL9OReOf9F4MD19xqmGtPaaEd57e8noNLN3f1pm8A5ayPu4Rs71MdVRdU3hKTkKDypjLULjxdqAyVw6Z9nKqpN6F_5RxNnsz0000]--></g></svg>